<?xml version="1.0" standalone="no"?>
<!DOCTYPE svg PUBLIC "-//W3C//DTD SVG 20010904//EN"
 "http://www.w3.org/TR/2001/REC-SVG-20010904/DTD/svg10.dtd">
<svg version="1.0" xmlns="http://www.w3.org/2000/svg"
 width="64.000000px" height="83.000000px" viewBox="0 0 64.000000 83.000000"
 preserveAspectRatio="xMidYMid meet">

<g transform="translate(0.000000,83.000000) scale(0.100000,-0.100000)"
fill="#000000" stroke="none">
<path d="M171 795 c-18 -20 -33 -25 -70 -25 -26 0 -56 -7 -69 -16 l-22 -15 0
-349 c0 -304 2 -351 16 -364 13 -14 52 -16 268 -16 232 0 254 1 269 18 10 10
17 30 17 45 0 21 5 26 28 29 l27 3 3 335 c1 184 0 345 -3 358 -5 22 -6 22
-223 22 l-217 0 -24 -25z m439 -330 l0 -335 -250 0 -250 0 0 279 0 280 53 3
52 3 3 53 3 52 195 0 194 0 0 -335z m-410 280 c0 -21 -5 -25 -32 -25 l-31 0
23 25 c13 14 27 25 32 25 4 0 8 -11 8 -25z m-80 -4 c0 -5 -7 -11 -15 -15 -13
-5 -15 -46 -13 -313 l3 -308 233 -3 c249 -3 249 -2 222 -53 -10 -18 -24 -19
-253 -19 -176 0 -246 3 -255 12 -9 9 -12 99 -12 344 0 333 0 333 22 348 24 17
68 22 68 7z"/>
<path d="M290 730 c0 -6 30 -10 70 -10 40 0 70 4 70 10 0 6 -30 10 -70 10 -40
0 -70 -4 -70 -10z"/>
<path d="M322 678 c3 -7 21 -14 41 -16 28 -2 37 1 37 12 0 12 -11 16 -41 16
-28 0 -39 -4 -37 -12z"/>
<path d="M142 443 l3 -188 153 -3 152 -3 0 -24 c0 -24 3 -25 65 -25 l65 0 0
215 0 215 -220 0 -220 0 2 -187z m418 137 l0 -30 -195 0 -195 0 0 30 0 30 195
0 195 0 0 -30z m-339 -65 c0 -5 -12 -11 -26 -13 -18 -2 -25 1 -25 13 0 12 7
15 25 13 14 -2 26 -7 26 -13z m227 -2 c3 -10 -21 -13 -97 -13 -93 0 -113 5
-94 24 13 12 186 2 191 -11z m110 0 c2 -9 -10 -13 -42 -13 -43 0 -55 7 -39 24
12 11 76 2 81 -11z m-337 -58 c0 -5 -12 -11 -26 -13 -18 -2 -25 1 -25 13 0 12
7 15 25 13 14 -2 26 -7 26 -13z m229 0 c0 -12 -18 -15 -100 -15 -82 0 -100 3
-100 15 0 12 18 15 100 15 82 0 100 -3 100 -15z m110 0 c0 -11 -12 -15 -45
-15 -33 0 -45 4 -45 15 0 11 12 15 45 15 33 0 45 -4 45 -15z m-339 -50 c0 -5
-12 -11 -26 -13 -18 -2 -25 1 -25 13 0 12 7 15 25 13 14 -2 26 -7 26 -13z
m227 -2 c3 -10 -21 -13 -97 -13 -93 0 -113 5 -94 24 13 12 186 2 191 -11z
m110 0 c2 -9 -10 -13 -42 -13 -43 0 -55 7 -39 24 12 11 76 2 81 -11z m-330
-55 c-7 -20 -58 -23 -58 -4 0 11 10 16 31 16 20 0 29 -4 27 -12z m222 -3 c0
-12 -18 -15 -100 -15 -82 0 -100 3 -100 15 0 12 18 15 100 15 82 0 100 -3 100
-15z m110 -1 c0 -12 -9 -14 -42 -12 -59 4 -63 28 -4 28 35 0 46 -4 46 -16z
m-339 -49 c0 -5 -12 -11 -26 -13 -18 -2 -25 1 -25 13 0 12 7 15 25 13 14 -2
26 -7 26 -13z m227 -2 c3 -10 -21 -13 -97 -13 -93 0 -113 5 -94 24 13 12 186
2 191 -11z m110 0 c2 -9 -10 -13 -42 -13 -43 0 -55 7 -39 24 12 11 76 2 81
-11z m0 -55 c-3 -8 -21 -13 -43 -13 -22 0 -40 5 -42 13 -3 8 9 12 42 12 33 0
45 -4 43 -12z"/>
<path d="M160 195 c0 -13 8 -16 38 -13 20 2 37 8 37 13 0 6 -17 11 -37 13 -30
3 -38 0 -38 -13z"/>
</g>
</svg>
