<?xml version="1.0" standalone="no"?>
<!DOCTYPE svg PUBLIC "-//W3C//DTD SVG 20010904//EN"
 "http://www.w3.org/TR/2001/REC-SVG-20010904/DTD/svg10.dtd">
<svg version="1.0" xmlns="http://www.w3.org/2000/svg"
 width="64px" height="64px" viewBox="0 0 64 64"
 preserveAspectRatio="xMidYMid meet">

<g transform="translate(0,64) scale(0.100000,-0.100000)"
fill="#000000" stroke="none">
<path d="M334 629 c-38 -11 -82 -53 -90 -86 -12 -46 3 -105 35 -136 40 -41
119 -49 169 -17 59 36 78 118 42 177 -34 56 -95 80 -156 62z m109 -39 c14 -11
31 -36 37 -55 41 -123 -133 -203 -200 -93 -31 51 -26 94 14 134 29 29 41 34
79 34 29 0 53 -7 70 -20z"/>
<path d="M352 558 c-22 -34 -15 -68 13 -68 8 0 15 -7 15 -15 0 -18 -12 -19
-27 -4 -20 20 -22 -6 -2 -30 l19 -23 20 23 c24 30 22 51 -8 64 -28 12 -30 39
-2 30 24 -8 24 -5 6 29 l-14 27 -20 -33z"/>
<path d="M522 325 c-29 -29 -49 -42 -56 -36 -6 4 -69 11 -140 14 -141 7 -182
-2 -213 -49 -8 -13 -20 -24 -26 -24 -6 0 -28 -17 -49 -37 l-38 -37 72 -73 c40
-40 77 -73 83 -73 17 0 75 64 75 83 0 28 34 37 140 37 56 0 110 4 120 10 29
16 150 166 150 187 0 10 -5 24 -12 31 -24 24 -60 13 -106 -33z m94 10 c8 -19
-122 -174 -150 -180 -12 -3 -66 -6 -121 -8 -55 -1 -107 -6 -116 -10 -11 -6
-30 5 -64 35 -42 39 -47 46 -37 65 23 42 67 52 199 46 90 -4 126 -10 135 -21
19 -23 -17 -42 -79 -42 -29 0 -53 -4 -53 -10 0 -16 113 -12 138 6 12 8 22 20
22 25 0 6 19 33 42 60 41 49 74 62 84 34z m-461 -185 l59 -60 -24 -25 c-13
-14 -28 -25 -34 -25 -6 0 -36 26 -68 57 l-58 57 27 28 c15 15 29 28 33 28 3 0
32 -27 65 -60z"/>
<path d="M275 220 c-3 -5 1 -10 10 -10 9 0 13 5 10 10 -3 6 -8 10 -10 10 -2 0
-7 -4 -10 -10z"/>
</g>
</svg>
